<?xml version="1.0" encoding="utf-8"?>
<!-- Generator: Adobe Illustrator 16.0.4, SVG Export Plug-In . SVG Version: 6.00 Build 0)  -->
<!DOCTYPE svg PUBLIC "-//W3C//DTD SVG 1.1//EN" "http://www.w3.org/Graphics/SVG/1.1/DTD/svg11.dtd">
<svg version="1.1" id="Layer_1" xmlns="http://www.w3.org/2000/svg" xmlns:xlink="http://www.w3.org/1999/xlink" x="0px" y="0px"
	 width="3323.993px" height="601px" viewBox="0 0 3323.993 601" enable-background="new 0 0 3323.993 601" xml:space="preserve">
<rect x="0.5" y="0.5" fill="#AA1F23" stroke="#000000" stroke-miterlimit="10" width="500.5" height="600"/>
<text transform="matrix(1 0 0 1 8.8545 260.2021)" fill="#FFFFFF" font-family="'Didot'" font-size="300">GD</text>
<text transform="matrix(1 0 0 1 200.5493 442.2021)" fill="#FFFFFF" font-family="'Arial-Black'" font-size="300">.</text>
<polygon fill="#FFFFFF" fill-opacity="0" points="3323.993,599.865 501,600.5 501,0.5 3323.993,-0.135 "/>
<text transform="matrix(1 0 0 1 828.8857 260.2021)" fill="#AA1F23" font-family="'Didot'" font-size="150"> </text>
<text transform="matrix(1 0 0 1 2041.5688 260.2021)" fill="#AA1F23" font-family="'Didot'" font-size="150"> </text>
<text transform="matrix(1 0 0 1 2149.8687 260.2021)" fill="none" stroke="#000000" stroke-miterlimit="10" font-family="'Didot'" font-size="150"> </text>
<text transform="matrix(1 0 0 1 2643.186 440.2021)" fill="#AA1F23" font-family="'Didot'" font-size="150"> </text>
<text transform="matrix(1 0 0 1 2643.186 440.2021)" fill="none" stroke="#000000" stroke-miterlimit="10" font-family="'Didot'" font-size="150"> </text>
<text transform="matrix(1 0 0 1 570.6865 366.7578)" fill="#AA1F23" font-family="'Didot'" font-size="240">Giacobazzi’s Delicatessan</text>
</svg>
